<svg xmlns="http://www.w3.org/2000/svg" xmlns:xlink="http://www.w3.org/1999/xlink" viewBox="0 0 575 200"><defs><style>.cls-1{fill:#20385b;}.cls-2{fill:url(#linear-gradient);}.cls-3{fill:url(#linear-gradient-2);}.cls-4{fill:#0052cc;}</style><linearGradient id="linear-gradient" x1="91.64" y1="155.09" x2="52.31" y2="132.48" gradientUnits="userSpaceOnUse"><stop offset="0" stop-color="#0050d3"/><stop offset="0.94" stop-color="#007ffc"/><stop offset="1" stop-color="#0082ff"/></linearGradient><linearGradient id="linear-gradient-2" x1="779.67" y1="1608.58" x2="740.34" y2="1585.98" gradientTransform="translate(814.7 1695.66) rotate(180)" xlink:href="#linear-gradient"/></defs><g id="Logo_Lock-up" data-name="Logo Lock-up"><path class="cls-1" d="M166.43,147.45c-3.61,2.37-9.33,3.43-15.31,3.43-19,0-29.74-11.44-29.74-29.66,0-17.6,10.73-29.91,29.56-29.91,5.64,0,11.27,1,15.4,4V103c-4.13-2.64-8.71-4.05-15.4-4.05-13.55,0-21.64,9-21.64,22.26s8.36,22.09,22.09,22.09a32.46,32.46,0,0,0,15-3.52Z"/><path class="cls-1" d="M172,127.91c0-13.2,7.74-22.79,20.94-22.79s20.77,9.59,20.77,22.79-7.66,23-20.77,23S172,141.11,172,127.91Zm7.39,0c0,8.36,4.13,15.93,13.55,15.93s13.38-7.57,13.38-15.93-4.05-15.75-13.38-15.75S179.37,119.55,179.37,127.91Z"/><path class="cls-1" d="M259.89,150h-7.57V123.42c0-7.92-3.17-11.44-10.38-11.44-7,0-11.88,4.67-11.88,13.56V150h-7.57V106h7.57v7.22a15.4,15.4,0,0,1,13.9-8.1c10.12,0,15.93,6.95,15.93,19.1Z"/><path class="cls-1" d="M280.92,106h11.35v7H280.92v37h-7.39V113H266.4v-7h7.13v-4.84c0-8.18,4.57-13.73,14-13.73a18.17,18.17,0,0,1,5.1.71v7a25.28,25.28,0,0,0-4.75-.44c-4.66,0-6.95,2.73-6.95,6.69Z"/><path class="cls-1" d="M312.25,150.26c-7.22,0-11.8-3.43-11.8-11.52V87.61H308v50.25c0,4,2.64,5.36,5.9,5.36a21.06,21.06,0,0,0,2.2-.08v6.77A16,16,0,0,1,312.25,150.26Z"/><path class="cls-1" d="M322.54,106h7.57v26.58c0,7.92,3.17,11.44,10.38,11.44,7,0,11.88-4.67,11.88-13.56V106h7.57v44h-7.57v-7.22a15.4,15.4,0,0,1-13.9,8.1c-10.12,0-15.93-6.95-15.93-19.1Z"/><path class="cls-1" d="M392.41,150.88c-16.45,0-23.67-9.5-23.67-23,0-13.29,7.39-22.79,20.77-22.79,13.55,0,19,9.42,19,22.79v3.43H376.4c1.05,7.48,5.89,12.32,16.28,12.32a38.93,38.93,0,0,0,13.37-2.37v7C402.45,150.18,396.9,150.88,392.41,150.88Zm-16.1-26h24.55c-.44-8.18-4.13-12.85-11.7-12.85C381.15,112,377.1,117.18,376.31,124.83Z"/><path class="cls-1" d="M454.89,150h-7.57V123.42c0-7.92-3.16-11.44-10.38-11.44-7,0-11.88,4.67-11.88,13.56V150h-7.57V106h7.57v7.22a15.42,15.42,0,0,1,13.9-8.1c10.12,0,15.93,6.95,15.93,19.1Z"/><path class="cls-1" d="M496.52,148.86c-2.64,1.4-6.69,2-10.74,2-15.66,0-23-9.5-23-23,0-13.29,7.31-22.79,23-22.79a23.3,23.3,0,0,1,10.47,2.11v7a22.16,22.16,0,0,0-9.94-2.11c-11.44,0-16.1,7.22-16.1,15.75s4.75,15.75,16.27,15.75a27.81,27.81,0,0,0,10-1.58Z"/><path class="cls-1" d="M526.17,150.88c-16.45,0-23.67-9.5-23.67-23,0-13.29,7.39-22.79,20.77-22.79,13.55,0,19,9.42,19,22.79v3.43H510.16c1,7.48,5.89,12.32,16.28,12.32a38.93,38.93,0,0,0,13.37-2.37v7C536.2,150.18,530.66,150.88,526.17,150.88Zm-16.1-26h24.55c-.44-8.18-4.14-12.85-11.7-12.85C514.91,112,510.86,117.18,510.07,124.83Z"/><path class="cls-2" d="M34.19,137c-.65,1.06-1.38,2.29-1.95,3.27a2,2,0,0,0,.67,2.72l13,8a2,2,0,0,0,2.77-.68c.51-.87,1.18-2,1.91-3.21,5.15-8.5,10.34-7.46,19.67-3l12.89,6.13a2,2,0,0,0,2.69-1l6.19-14a2,2,0,0,0-1-2.62c-2.72-1.28-8.13-3.84-13-6.18C60.47,117.89,45.58,118.45,34.19,137Z"/><path class="cls-3" d="M92.48,105.2c.65-1.06,1.38-2.3,2-3.27a2,2,0,0,0-.68-2.72l-13-8a2,2,0,0,0-2.76.68c-.52.87-1.19,2-1.92,3.21-5.15,8.5-10.33,7.46-19.67,3L43.52,92a2,2,0,0,0-2.68,1l-6.19,14a2,2,0,0,0,1,2.62c2.72,1.28,8.14,3.83,13,6.18C66.2,124.27,81.09,123.71,92.48,105.2Z"/></g><g id="Attribution"><path class="cls-4" d="M224.86,63.74c0-4-2.55-5.75-7.38-7-3-.76-3.73-1.41-3.73-2.42,0-1.2,1.06-1.81,3.05-1.81a16.51,16.51,0,0,1,7,1.85v-5A15.8,15.8,0,0,0,217,47.87c-5.26,0-8.18,2.53-8.18,6.6,0,3.9,2.58,5.89,7,6.87,3.05.68,4,1.19,4,2.5,0,1-.73,1.82-3,1.82a16.46,16.46,0,0,1-8.06-2.3v5.28a17.49,17.49,0,0,0,8,1.86C222.23,70.5,224.86,67.81,224.86,63.74Z"/><path class="cls-4" d="M285.28,48.19v22H290V53.43l2,4.44,6.6,12.31h5.88v-22h-4.67v14.2L298,58.28l-5.32-10.09Z"/><path class="cls-4" d="M255.61,48.19h-5.12v22h5.12Z"/><path class="cls-4" d="M169.16,48.19v22h10.46l1.65-4.76h-7V48.19Z"/><path class="cls-4" d="M148.43,48.19V53h5.67V70.18h5.11V53h6.08V48.19Z"/><path class="cls-4" d="M141,48.19h-6.74l-7.66,22h5.85l1.09-3.72a14.84,14.84,0,0,0,4.11.61,13.87,13.87,0,0,0,4.11-.61l1.09,3.72h5.85Zm-3.39,14.35a10.85,10.85,0,0,1-2.82-.4l2.82-9.63,2.82,9.63A10.61,10.61,0,0,1,137.59,62.54Z"/><path class="cls-4" d="M197.74,48.19H191l-7.67,22h5.85l1.09-3.72a14.86,14.86,0,0,0,4.12.61,13.87,13.87,0,0,0,4.11-.61l1.09,3.72h5.85Zm-3.39,14.35a11,11,0,0,1-2.82-.4l2.82-9.63,2.83,9.63A11,11,0,0,1,194.35,62.54Z"/><path class="cls-4" d="M274,48.19h-6.74l-7.66,22h5.85l1.08-3.72a15,15,0,0,0,4.12.61,13.87,13.87,0,0,0,4.11-.61l1.09,3.72h5.85Zm-3.35,14.35a10.85,10.85,0,0,1-2.82-.4l2.82-9.63,2.82,9.63A11.16,11.16,0,0,1,270.62,62.54Z"/><path class="cls-4" d="M245.23,63.74c0-4-2.55-5.75-7.38-7-3-.76-3.73-1.41-3.73-2.42,0-1.2,1.06-1.81,3-1.81a16.51,16.51,0,0,1,7,1.85v-5a15.8,15.8,0,0,0-6.88-1.49c-5.26,0-8.18,2.53-8.18,6.6,0,3.9,2.58,5.89,7,6.87,3.05.68,4,1.19,4,2.5,0,1-.74,1.82-3,1.82a16.46,16.46,0,0,1-8.06-2.3v5.28a17.49,17.49,0,0,0,8,1.86C242.6,70.5,245.23,67.81,245.23,63.74Z"/></g></svg>