<?xml version="1.0" encoding="UTF-8"?>
<svg id="Layer_1" xmlns="http://www.w3.org/2000/svg" version="1.1" xmlns:xlink="http://www.w3.org/1999/xlink" viewBox="0 0 2500 2500">
  <!-- Generator: Adobe Illustrator 29.2.0, SVG Export Plug-In . SVG Version: 2.1.0 Build 108)  -->
  <defs>
    <style>
      .st0 {
        fill: url(#radial-gradient);
      }

      .st1 {
        fill: url(#radial-gradient1);
      }

      .st2 {
        fill: #1f191a;
      }

      .st3 {
        fill: url(#radial-gradient2);
      }

      .st4 {
        fill: url(#radial-gradient3);
      }
    </style>
    <radialGradient id="radial-gradient" cx="897.2" cy="-140.1" fx="897.2" fy="-140.1" r="424.3" gradientTransform="translate(-651.9 1227.4) scale(1.8)" gradientUnits="userSpaceOnUse">
      <stop offset="0" stop-color="#a9e0f6"/>
      <stop offset="1" stop-color="#147bc1"/>
    </radialGradient>
    <radialGradient id="radial-gradient1" cx="868.6" cy="-133.9" fx="868.6" fy="-133.9" r="519.1" gradientTransform="translate(-651.9 1227.4) scale(1.8)" gradientUnits="userSpaceOnUse">
      <stop offset="0" stop-color="#a4cd39"/>
      <stop offset="1" stop-color="#0f9f49"/>
      <stop offset="1" stop-color="#0f9f49"/>
    </radialGradient>
    <radialGradient id="radial-gradient2" cx="988.9" cy="-167.9" fx="988.9" fy="-167.9" r="662.6" gradientTransform="translate(-651.9 1227.4) scale(1.8)" gradientUnits="userSpaceOnUse">
      <stop offset="0" stop-color="#a4cd39"/>
      <stop offset="1" stop-color="#0f9f49"/>
      <stop offset="1" stop-color="#0f9f49"/>
    </radialGradient>
    <radialGradient id="radial-gradient3" cx="1058.1" cy="-450.3" fx="1058.1" fy="-450.3" r="872.5" gradientTransform="translate(-651.9 1227.4) scale(1.8)" gradientUnits="userSpaceOnUse">
      <stop offset="0" stop-color="#a4cd39"/>
      <stop offset="1" stop-color="#0f9f49"/>
      <stop offset="1" stop-color="#0f9f49"/>
    </radialGradient>
  </defs>
  <g id="Layer_11" data-name="Layer_1">
    <path class="st0" d="M196.2,1270.8c0,579.6,471.4,1049.4,1052.5,1049.4s1052.5-469.9,1052.5-1049.4S1829.8,221.1,1248.7,221.1,196.2,691.1,196.2,1270.8"/>
    <path class="st1" d="M804.3,445c-81,3.4-158.8,14.1-236.2,25.6-219.5,185.8-361.3,459.5-371.1,766.9,62.3,65.3,143.9,212.6,238.5,297.9,13.2-5.7,26.8-10.7,40.6-14.7-46.3-53.8-111.4-125-121-157.8-47.6-160.6,7.8-311.1,127.2-322.8,107-10.8,198.7-169.4,274.3-273.7,155.5-214.4,394-178.6,382.1-285.9-13.9-62.7-50.8-82.1-98.5-82.1-71.2,0-165.3,43.4-235.9,46.3"/>
    <path class="st3" d="M521.1,1508l-45,12.9c-12.9,3.4-23.2,8.5-40.6,14.7-38.5,17.3-66.5,43.4-73,99.8-11.9,102,85.3,182,167.3,205.4,103.9,29.7,112.5-4.8,167,68.6,38.2,51.4,45.4,146.5,65.1,209.2,11.3,35.9,25.8,70.8,43.2,104,75.2,35,154.3,60.8,235.8,77.1,20.4-120.7,11-284,38.2-354.4,55.5-144.5,86.9-208.2,11.9-356.9-165.3-46.7-215.7-61.4-382-95.7-34.1-6.9-55.2-10.3-74.3-10.3-29.6,0-53.9,8.2-113.6,25.6"/>
    <path class="st4" d="M1544.5,671.2c-48.6,69.6-219.8,88.6-274.4,166.7-42.6,61,1.3,180.7-35.8,249.8-17.3,31.9-9.2,124.4,11.6,154.7,65.8,95.7,175.2,42.3,257.6,76.8,100.5,41.6,112.1,158.1,195.3,242.9,83.2,84.8-106.4,216.4,48.6,525.9,16.4,33.1,36,57.6,56.6,74.3,104.6-65.1,196.9-147.8,273-244.7,23.6-156.3-29.3-206.2,36.8-349.3,40.9-88.2,110.8-241,186.1-344.6-12.6-289.7-143.2-549-344.9-731.3-19,5.1-42.9,6.2-75.8.3-25.3-5-51-7.5-76.8-7.5-155.5,0-202.1,106.7-257.6,185.8"/>
    <path class="st2" d="M911.3,1036.3c179.2-75.8,373.5-136.4,635-158.4-66.8-159.6-140.4-272.4-227-375.5-192.8,15.4-369.1,67.4-521.2,130.1,22.4,118.2,64.8,261.1,113.1,403.8M1746.3,1476.2c-247.8-2.8-463.9,56.3-612,128.8,62.7,134.4,186.7,312.8,232.8,386.1,80.7-29.7,167-52.2,234.4-62.7,67.4-10.5,156.5-20.4,217.1-19.3-10.8-156.5-29.3-262.1-72.5-432.8M1089.6,1515.2c197.9-90.7,415.4-131.6,634.3-125.7-59.9-206.4-94.1-302.3-144.9-428-243.1,10.5-450.6,70.5-639.4,159.6,0,0,69.6,223.3,150,394M1850.6,519c-121.3-22.1-298.5-36-429.7-28,89.7,123.7,155.2,231.4,216.9,384.8,166,4.1,391.9,53.8,484.5,90-55.2-147-160.1-333.3-271.6-446.7M2228.2,1494.3c-7.5-136.3-28.3-318.4-79.1-445.4-134.2-53.8-317.7-87.3-478.8-88.9,49.7,115.6,107.4,308.9,135.7,433.3,116.5,14.1,298.5,46.7,422.3,101M2117.4,540.8c-173.2-211.6-565.1-391.5-1001.3-364.3,97.4,64,178.6,160.9,249.5,240.6,109-10,337.7,7.9,423.9,31.6-14.7-17.3-32.7-34.1-37.2-44.4-12.3-26.2,17.3-31.9,40.9-17,29.7,19.3,64.3,41.9,91.4,69.6,50.7,11.3,175.1,53.9,232.8,83.8M2326.1,1559c-4.8,17-34.7,34-48.6,29.7,2.1,30-5.1,179.6-13,237.5,20.8-42.6,60.7-148.9,72.7-193.3l16.7-66.1c17-55.8,71.2-249.4,22.1-503.4-54.8-282.5-157.4-383.4-193-428.1-91-49.4-228.7-94.4-228.7-94.4,124.7,168.6,168.1,248.1,242.6,448.8,43.4,22.4,122.1,65.8,131.6,77.9,9.5,12.2,8.2,26.2-16.4,25.6-20.5,0-60.4-19.5-91.3-27.7,33,109.3,58,313.6,56.3,450.6,0,0,54.2,25.9,49.1,42.9M2166.9,1974.8c18-18,44.7-55.8,55.2-77.9,10.5-89.7,10.8-273.7,6.9-327.2-108.4-44-276-78.7-398.4-87.6,39.9,145.8,59.6,360.1,62.7,430,58.6,5.9,206.9,35.8,273.4,62.7M1888.4,2220.9c95.1-58.9,184-126.7,248.8-208.5-55.8-13.9-180.2-30.8-241.9-26.7,0,0-1.8,147.5-6.9,235.2M1629.3,2342.8c47.3-14.9,167.6-69.5,192.5-85.9,5.3-90.7,5.6-181.5,1-272.2-126.4,0-304.6,36.8-406.3,79.4,59,95.1,140.7,199.7,212.7,278.5M1061.3,2260.4c35.2,35.5,175.2,128.1,175.2,128.1,93,3.8,210.7-6.9,294.8-21.5-46.4-52.7-161.9-215.8-197.1-270.9-89.4,37.5-202.8,106.4-273,164.5M678.6,1871.6c89.2,113.8,228.4,258.3,325.6,338.2,91.7-73.6,195.9-142.4,282.5-184.3-74.7-115.5-185.1-283.2-231.4-386.5-165.7,73.3-259.8,134.7-376.9,232.5M441.8,1414.9c56.9,161.5,111.5,284.5,183.3,386.1,83.8-72.5,255.5-187.4,386.8-250.1-43.2-92.7-105.6-266.1-149-395.8-169.4,82.8-295.5,163.5-421,259.8M306.1,930.2c13.3,92.7,58,293.2,98.5,394.7,95.7-71.6,311.8-204.8,434.3-258.6-42.9-155.8-71.6-253.9-95.7-411-173,76.8-355.9,196-437.2,274.7M285,599.4c-5.9,46.7.3,133.2,12,236.5,95.7-85.1,280.1-196.3,434.3-264.2-18-117.2-37.1-304-35-353.8-142.7,78.1-299.2,234.9-414.1,396M749.2,125.8C954.3,41.3,1154-5.3,1384.5,26.1c25.6,3.7,23.4,25.2-3.8,25.5l-32.4,1c-185.5,2.8-458.8,61.7-600.1,141.4-2.8,93.8,14.9,243.1,34,360.9,128.2-53.8,326.9-109,477.5-125.7-85.6-90.4-202.1-176.3-215.8-186.4s-20.8-27-20.8-48.8c2.1-40.9,37.2-46,56-41.2,62.7-12.3,125.1-25.9,231.4-22.6,449.2-19.5,859.5,233.7,1016,522.5,396.8,625.6.3,1488.9-519.1,1718.7-222.3,98.5-412.7,140.8-763.8,92-351.1-48.8-639.4-220.5-862.9-581.1C-94.8,1437.9,60.3,920.3,98.8,811.9,264.5,422.3,536,215.5,749.3,125.8M219.5,895.8c-4.4-67.4-9.8-159.4-9.8-159.4-49.7,107.4-79.1,172.2-93,297.9,34.7-61.4,102.9-138.5,102.9-138.5M944.4,2260.1c-74.7-55.8-259.3-230.3-336-335.7-28.3,16.4-59.6,61.4-100.2,69.2-16,2.8-52.2,7.2-62.7,2.8s2.3-26.7,13.9-41.6c26.2-34.7,57-65.9,91.4-92.5-91-133.2-134.2-230.5-196-390.9-36,22.4-62,42.2-93,66.8-10.5,8.2-39.6,13.6-53.5,1-25.5-22.9-25.9-63,10-88.4,14.7-10.3,87.3-60.4,104.3-74.6-44.7-128.8-82.2-297.9-92.3-385.8-29.7,25.9-71.6,55.2-83.5,63.4-17,4.7-28.3-.7-33.1-1.6-17,182,2.6,382.4,56.9,563.4,93.3,311.2,354.9,607.9,708.1,718.4,8.2-12.3,48.8-59,65.8-74M1128.4,2384.8c-35-20.1-78.7-50.8-119.3-77.9-17,14.9-30.6,36.8-44.2,54.5,46.7,16,109.7,17.3,163.5,23.4"/>
  </g>
</svg>